<svg xmlns="http://www.w3.org/2000/svg" viewBox="0 0 135 160" fill="none"><path d="M37 9C37 4 40 2 44 2C52 1 60 1 69 0C75 0 81 0 87 0C92 0 96 2 98 7C103 7 107 7 112 7C124 7 132 14 133 26C134 39 134 51 134 63C134 80 134 97 133 114C133 120 132 126 132 132C131 144 119 159 101 159C76 159 52 159 27 160C25 160 22 159 20 159C8 156 1 148 1 136C1 122 1 108 1 95C1 76 1 58 2 40C2 34 3 28 5 22C8 13 12 10 22 9C27 9 32 9 37 9ZM38 14C31 15 25 16 20 16C17 17 14 19 14 21C12 28 10 35 10 42C10 74 11 107 9 139C9 145 13 150 19 152C23 153 27 153 31 153C43 153 54 153 66 153C79 152 91 152 104 151C107 151 111 150 114 149C120 144 124 139 125 131C125 126 125 121 126 116C126 101 126 87 126 72C127 58 127 43 126 29C126 23 124 17 117 15C112 14 106 14 100 14C100 15 100 16 100 16C100 22 99 24 93 26C92 27 90 27 88 27C74 28 60 29 46 29C42 29 40 27 39 23C39 20 38 17 38 14H38ZM70 6C70 6 70 6 70 6C62 6 55 7 47 7C44 8 44 9 44 11C45 13 45 15 45 17C45 20 46 20 49 20C56 20 63 20 71 20C77 20 84 19 90 19C93 19 93 17 93 15C92 13 92 11 92 9C91 7 90 6 88 6C82 6 76 6 70 6Z" fill="#62625d"/></svg>
