<svg xmlns="http://www.w3.org/2000/svg" viewBox="0 0 158 160" fill="none"><path d="M152 67C151 66 150 65 149 64C141 57 134 49 126 42C113 29 99 17 86 4C81-1 79-1 75 4L71 7C54 24 37 41 20 58C16 61 12 65 8 68C7 70 5 71 3 73C2 74 0 76 2 78C3 80 5 80 7 78C9 77 10 76 12 75C13 74 13 73 14 72C15 72 15 72 16 71L16 71C16 73 16 74 16 75C16 79 16 82 16 85C16 92 16 98 16 105C15 113 15 122 15 130C15 135 15 141 15 147C16 153 18 155 24 155C28 156 32 156 36 156C43 157 51 157 59 158C77 159 96 159 114 160C114 160 115 160 116 160C121 160 126 159 132 158C140 157 143 155 144 147C145 137 146 127 146 116C147 106 147 97 147 86C147 82 147 79 147 75C148 75 148 76 149 76C151 78 154 79 156 77C156 76 157 76 157 75C157 75 157 74 157 74C157 72 156 71 155 70C154 69 153 68 152 67ZM62 97L93 94L94 152L61 151L62 97ZM102 102C102 99 101 96 101 93C101 93 101 92 101 91C101 89 101 88 99 87C98 86 97 85 95 86C82 87 71 88 60 88C55 89 54 90 54 95C54 115 54 130 54 145C54 146 54 147 54 148C53 149 53 149 53 150L23 148C23 147 22 147 22 147C22 145 22 144 22 143C22 137 22 132 22 127C22 120 22 114 22 108C22 102 22 95 22 90C22 82 22 75 22 68C22 66 23 65 24 64C38 51 52 37 66 24L72 18C74 16 76 14 78 12L81 10C83 12 85 13 86 15C91 19 95 23 99 28C105 33 110 38 116 44C123 50 130 57 137 64C138 66 139 67 139 69C138 71 138 73 139 75C139 76 139 77 139 78L139 81C138 92 138 103 138 114C137 121 137 128 136 134C136 137 136 140 136 143L136 143C136 143 136 144 136 144C135 150 134 150 129 151C120 152 111 152 102 152L102 139C102 127 102 114 102 102H102Z" fill="#111111"/></svg>
